<?xml version="1.0" encoding="UTF-8"?>
<svg xmlns="http://www.w3.org/2000/svg" xmlns:xlink="http://www.w3.org/1999/xlink" width="128px" height="128px" viewBox="0 0 128 128" version="1.1">
<g id="surface1">
<path style=" stroke:none;fill-rule:nonzero;fill:rgb(100%,100%,100%);fill-opacity:0.0117647;" d="M 9.144531 20.898438 L 128 20.898438 L 128 106.882812 L 9.144531 106.882812 Z M 9.144531 20.898438 "/>
<path style=" stroke:none;fill-rule:nonzero;fill:rgb(54.117647%,16.862745%,88.627451%);fill-opacity:1;" d="M 10.667969 74.667969 C 10.667969 71.722656 13.054688 69.332031 16 69.332031 L 26.667969 69.332031 L 26.667969 101.332031 L 16 101.332031 C 13.054688 101.332031 10.667969 98.945312 10.667969 96 Z M 10.667969 74.667969 "/>
<path style=" stroke:none;fill-rule:nonzero;fill:rgb(54.117647%,16.862745%,88.627451%);fill-opacity:1;" d="M 101.332031 69.332031 L 112 69.332031 C 114.945312 69.332031 117.332031 71.722656 117.332031 74.667969 L 117.332031 96 C 117.332031 98.945312 114.945312 101.332031 112 101.332031 L 101.332031 101.332031 Z M 101.332031 69.332031 "/>
<path style="fill:none;stroke-width:4;stroke-linecap:round;stroke-linejoin:round;stroke:rgb(0%,0%,0%);stroke-opacity:1;stroke-miterlimit:4;" d="M 11.632324 35.917969 L 11.632324 23.917969 C 11.632324 16.186523 17.900391 9.918457 25.633301 9.918457 C 33.364746 9.918457 39.632812 16.186523 39.632812 23.917969 L 39.632812 35.917969 M 11.632324 25.918945 L 7.633301 25.918945 C 6.528809 25.918945 5.632324 26.813965 5.632324 27.918457 L 5.632324 35.917969 C 5.632324 37.022461 6.528809 37.918945 7.633301 37.918945 L 11.632324 37.918945 Z M 39.632812 25.918945 L 43.633301 25.918945 C 44.737793 25.918945 45.632812 26.813965 45.632812 27.918457 L 45.632812 35.917969 C 45.632812 37.022461 44.737793 37.918945 43.633301 37.918945 L 39.632812 37.918945 Z M 39.632812 25.918945 " transform="matrix(2.666667,0,0,2.666667,0,0)"/>
<path style="fill:none;stroke-width:3;stroke-linecap:round;stroke-linejoin:round;stroke:rgb(54.117647%,16.862745%,88.627451%);stroke-opacity:1;stroke-miterlimit:4;" d="M 17.550293 32.081543 L 21.550781 32.081543 L 23.550293 26.081543 L 27.550781 38.081543 L 29.550293 32.081543 L 33.550781 32.081543 " transform="matrix(2.666667,0,0,2.666667,0,0)"/>
</g>
</svg>
