<svg xmlns="http://www.w3.org/2000/svg" width="48" height="48" fill="none"><rect id="backgroundrect" width="100%" height="100%" x="0" y="0" fill="none" stroke="none" data-darkreader-inline-stroke="" style="--darkreader-inline-stroke:none;" class=""/>





<g class="currentLayer" style=""><title>Layer 1</title><rect width="44.57142734527588" height="32.2448966549804" fill="white" fill-opacity="0.01" id="svg_1" data-darkreader-inline-fill="" style="--darkreader-inline-fill:#242525;" class="" y="7.836733898674892" x="3.428572654724121"/><path d="M4,28 C4,26.8954 4.89543,26 6,26 H10 V38 H6 C4.89543,38 4,37.1046 4,36 V28 z" fill="#8a2be2" id="svg_2" data-darkreader-inline-fill="" style="--darkreader-inline-fill:#67289e;" class="" fill-opacity="1"/><path d="M38,26 H42 C43.1046,26 44,26.8954 44,28 V36 C44,37.1046 43.1046,38 42,38 H38 V26 z" fill="#8a2be2" id="svg_3" data-darkreader-inline-fill="" style="--darkreader-inline-fill:#67289e;" class="" fill-opacity="1"/><path d="M11.632652997970581,35.91836732625961 V23.918367326259613 C11.632652997970581,16.186367326259614 17.90065299797058,9.918367326259613 25.63265299797058,9.918367326259613 C33.36465299797058,9.918367326259613 39.63265299797058,16.186367326259614 39.63265299797058,23.918367326259613 V35.91836732625961 M11.632652997970581,25.918367326259613 H7.632652997970581 C6.528082997970582,25.918367326259613 5.632652997970581,26.81376732625961 5.632652997970581,27.918367326259613 V35.91836732625961 C5.632652997970581,37.02296732625961 6.528082997970582,37.91836732625961 7.632652997970581,37.91836732625961 H11.632652997970581 V25.918367326259613 zM39.63265299797058,25.918367326259613 H43.63265299797058 C44.73725299797058,25.918367326259613 45.63265299797058,26.81376732625961 45.63265299797058,27.918367326259613 V35.91836732625961 C45.63265299797058,37.02296732625961 44.73725299797058,37.91836732625961 43.63265299797058,37.91836732625961 H39.63265299797058 V25.918367326259613 z" stroke="black" stroke-width="4" stroke-linecap="round" stroke-linejoin="round" id="svg_4" data-darkreader-inline-stroke="" style="--darkreader-inline-stroke:#e5e0d8;" class=""/><path d="M17.551018766539098,32.08162937209368 L21.551018766539098,32.08162937209368 L23.551018766539098,26.081629372093676 L27.551018766539098,38.08162937209368 L29.551018766539098,32.08162937209368 L33.551018766539094,32.08162937209368 " stroke="#8a2be2" stroke-width="3" stroke-linecap="round" stroke-linejoin="round" id="svg_5" data-darkreader-inline-stroke="" style="--darkreader-inline-stroke:#e5e0d8; --darkreader-inline-fill:#67289e;" class="" fill="none" data-darkreader-inline-fill="" opacity="1" stroke-opacity="1"/></g></svg>